<svg xmlns="http://www.w3.org/2000/svg" style="display:none">
  <symbol id="cil-leaf" viewBox="0 0 512 512">
    <path d="M16,464V312c0-137,111-248,248-248h48v48c0,137-111,248-248,248H16z"/>
  </symbol>
  <symbol id="cil-speedometer" viewBox="0 0 512 512">
    <path d="M326.1 231.9l-47.5 75.5a31.94 31.94 0 01-54.4 0l-47.5-75.5C152.9 191.8 168 144 208 144h96c40 0 55.1 47.8 22.1 87.9z"/>
    <path d="M256 64C132.3 64 32 164.2 32 288c0 52.2 17.8 100.1 47.6 138.2l-68.8 68.8C-6.6 512.4 4.9 544 32 544h448c27.1 0 38.6-31.6 21.2-49l-68.8-68.8C462.2 388.1 480 340.2 480 288c0-123.8-100.3-224-224-224zm0 384c-88.2 0-160-71.8-160-160S167.8 128 256 128s160 71.8 160 160-71.8 160-160 160z"/>
  </symbol>
  <symbol id="cil-people" viewBox="0 0 512 512">
    <path d="M336 256c-20.6 0-40.4-9.6-53.3-25.6-10.7-13.2-16.7-30-16.7-47.4 0-40.4 32.8-73 73-73s73 32.6 73 73-32.8 73-73 73zm-176 0c-20.6 0-40.4-9.6-53.3-25.6C96 217.2 90 200.4 90 183c0-40.4 32.8-73 73-73s73 32.6 73 73-32.8 73-73 73zm0 56c39.7 0 78.4 6.7 115.2 20 14.7 5.3 26.8 13.2 26.8 28v76H16v-76c0-14.8 12.1-22.7 26.8-28C79.6 318.7 120.3 312 160 312zm192 56h128v32c0 17.6-14.4 32-32 32H352v-64zm-64-56c43.3 0 86.6 6.7 128 20v140H288V352z"/>
  </symbol>
  <symbol id="cil-location-pin" viewBox="0 0 512 512">
    <path d="M256 32c-88.2 0-160 71.8-160 160 0 102.9 160 288 160 288s160-185.1 160-288c0-88.2-71.8-160-160-160zm0 224c-35.3 0-64-28.7-64-64s28.7-64 64-64 64 28.7 64 64-28.7 64-64 64z"/>
  </symbol>
  <symbol id="cil-eco" viewBox="0 0 512 512">
    <path d="M272 96c-78.6 0-145.1 51.5-167.7 122.5 33.6-17 71.5-26.5 111.7-26.5h88c8.8 0 16 7.2 16 16s-7.2 16-16 16h-88c-57.4 0-107.2 32-132.4 79.3C88 315.2 92 328.8 96 343.4c8.5 30.6 25.8 57.2 49 78.5 42.9 39.4 100 63.1 163 63.1h88c8.8 0 16-7.2 16-16s-7.2-16-16-16h-88c-55.2 0-106.3-21.6-144-57.5-13.5-12.9-24.8-27.5-33.6-43.3 24.2-22.5 56.4-36.2 91.6-36.2h88c8.8 0 16-7.2 16-16s-7.2-16-16-16h-88c-28.8 0-55.4 8.1-78.1 22.1C178.8 211.5 220.8 160 272 160h96c8.8 0 16-7.2 16-16s-7.2-16-16-16h-96z"/>
  </symbol>
  <symbol id="cil-task" viewBox="0 0 512 512">
    <path d="M139.6 35.5a12 12 0 0 0-17 0L58.9 98.8l-22.7-22.1a12 12 0 0 0-17 0L3.5 92.4a12 12 0 0 0 0 17l47.6 47.4a12 12 0 0 0 17 0l15.6-15.6L156.5 68.4a12 12 0 0 0 0-17l-16.9-15.9zm0 159.2a12 12 0 0 0-17 0l-63.7 63.7-22.7-22.1a12 12 0 0 0-17 0L3.5 251.8a12 12 0 0 0 0 17l47.6 47.4a12 12 0 0 0 17 0l15.6-15.6L156.5 227.8a12 12 0 0 0 0-17l-16.9-16zM64 368c-26.5 0-48 21.5-48 48s21.5 48 48 48 48-21.5 48-48-21.5-48-48-48zm432 16H208c-8.8 0-16 7.2-16 16v32c0 8.8 7.2 16 16 16h288c8.8 0 16-7.2 16-16v-32c0-8.8-7.2-16-16-16zm0-160H208c-8.8 0-16 7.2-16 16v32c0 8.8 7.2 16 16 16h288c8.8 0 16-7.2 16-16v-32c0-8.8-7.2-16-16-16zm0-160H208c-8.8 0-16 7.2-16 16v32c0 8.8 7.2 16 16 16h288c8.8 0 16-7.2 16-16V80c0-8.8-7.2-16-16-16z"/>
  </symbol>
  <symbol id="cil-dollar" viewBox="0 0 512 512">
    <path d="M278.6 32.4c-4.1-3.5-10-3.5-14.1 0L232 60.8v-27c0-5.5-4.5-10-10-10h-40c-5.5 0-10 4.5-10 10v43.2l-32.6 28.4c-4.1 3.5-4.6 9.7-1.1 13.8 2 2.3 4.7 3.5 7.5 3.5 2.3 0 4.6-.8 6.3-2.4l24.9-21.7V384h-38c-5.5 0-10 4.5-10 10v40c0 5.5 4.5 10 10 10h180c5.5 0 10-4.5 10-10v-40c0-5.5-4.5-10-10-10h-38V98.4l24.9 21.7c1.8 1.6 4.1 2.4 6.3 2.4 2.8 0 5.5-1.2 7.5-3.5 3.5-4.1 3.1-10.3-1.1-13.8L278.6 32.4zM232 384h-20V114.8l20-17.4V384zm40 0V97.4l20 17.4V384h-20z"/>
  </symbol>
  <symbol id="cil-chart-pie" viewBox="0 0 512 512">
    <path d="M304 192h176c8.8 0 16-7.2 16-16 0-106-86-192-192-192-8.8 0-16 7.2-16 16v176c0 8.8 7.2 16 16 16zM272 64v-32c-97.2 0-176 78.8-176 176s78.8 176 176 176 176-78.8 176-176h-32c0 79.4-64.6 144-144 144s-144-64.6-144-144S192.6 64 272 64z"/>
  </symbol>
  <symbol id="cil-settings" viewBox="0 0 512 512">
    <path d="M444.8 235.4l-32.8-9.4c-3.1-10.3-7.1-20.2-12-29.6l19.1-27.9c6.2-9.1 4.9-21.4-3.1-28.9l-24.9-24.9c-7.5-7.5-19.8-9.3-28.9-3.1l-27.9 19.1c-9.4-4.9-19.3-8.9-29.6-12l-9.4-32.8C293.7 77.1 285.4 70 275.5 70h-35c-9.9 0-18.2 7.1-19.8 16.9l-9.4 32.8c-10.3 3.1-20.2 7.1-29.6 12l-27.9-19.1c-9.1-6.2-21.4-4.9-28.9 3.1L99 140.6c-7.5 7.5-9.3 19.8-3.1 28.9l19.1 27.9c-4.9 9.4-8.9 19.3-12 29.6l-32.8 9.4C61.1 237.8 54 246.1 54 256v35c0 9.9 7.1 18.2 16.9 19.8l32.8 9.4c3.1 10.3 7.1 20.2 12 29.6l-19.1 27.9c-6.2 9.1-4.9 21.4 3.1 28.9l24.9 24.9c7.5 7.5 19.8 9.3 28.9 3.1l27.9-19.1c9.4 4.9 19.3 8.9 29.6 12l9.4 32.8c1.6 9.8 9.9 16.9 19.8 16.9h35c9.9 0 18.2-7.1 19.8-16.9l9.4-32.8c10.3-3.1 20.2-7.1 29.6-12l27.9 19.1c9.1 6.2 21.4 4.9 28.9-3.1l24.9-24.9c7.5-7.5 9.3-19.8 3.1-28.9l-19.1-27.9c4.9-9.4 8.9-19.3 12-29.6l32.8-9.4c9.8-1.6 16.9-9.9 16.9-19.8v-35c0-9.9-7.1-18.2-16.9-19.8zM258 362c-57.4 0-104-46.6-104-104s46.6-104 104-104 104 46.6 104 104-46.6 104-104 104z"/>
  </symbol>
  <symbol id="cil-menu" viewBox="0 0 512 512">
    <path d="M64 144h384c8.8 0 16-7.2 16-16V80c0-8.8-7.2-16-16-16H64c-8.8 0-16 7.2-16 16v48c0 8.8 7.2 16 16 16zm0 160h384c8.8 0 16-7.2 16-16v-48c0-8.8-7.2-16-16-16H64c-8.8 0-16 7.2-16 16v48c0 8.8 7.2 16 16 16zm0 160h384c8.8 0 16-7.2 16-16v-48c0-8.8-7.2-16-16-16H64c-8.8 0-16 7.2-16 16v48c0 8.8 7.2 16 16 16z"/>
  </symbol>
  <symbol id="cil-bell" viewBox="0 0 512 512">
    <path d="M256 64c-79.5 0-144 64.5-144 144v112L64 368v16h384v-16l-48-48V208c0-79.5-64.5-144-144-144zm0 384c-26.5 0-48-21.5-48-48h96c0 26.5-21.5 48-48 48z"/>
  </symbol>
  <symbol id="cil-user" viewBox="0 0 512 512">
    <path d="M256 288c79.5 0 144-64.5 144-144S335.5 0 256 0 112 64.5 112 144s64.5 144 144 144zm128 32h-55.1c-22.2 10.2-46.9 16-72.9 16s-50.6-5.8-72.9-16H128C57.3 320 0 377.3 0 448v16c0 26.5 21.5 48 48 48h416c26.5 0 48-21.5 48-48v-16c0-70.7-57.3-128-128-128z"/>
  </symbol>
  <symbol id="cil-check" viewBox="0 0 512 512">
    <path d="M173.9 439.4l-166.4-166.4c-10-10-10-26.2 0-36.2l36.2-36.2c10-10 26.2-10 36.2 0L192 312.7 432.1 72.6c10-10 26.2-10 36.2 0l36.2 36.2c10 10 10 26.2 0 36.2L210.1 439.4c-10 10-26.2 10-36.2 0z"/>
  </symbol>
  <symbol id="cil-check-circle" viewBox="0 0 512 512">
    <path d="M256 8C119 8 8 119 8 256s111 248 248 248 248-111 248-248S393 8 256 8zm0 448c-110.5 0-200-89.5-200-200S145.5 56 256 56s200 89.5 200 200-89.5 200-200 200zm101.8-262.2L224.4 327.2l-75.4-75.4c-4.7-4.7-12.3-4.7-17 0l-7.1 7.1c-4.7 4.7-4.7 12.3 0 17l90.5 90.5c4.7 4.7 12.3 4.7 17 0l150.5-150.5c4.7-4.7 4.7-12.3 0-17l-7.1-7.1c-4.7-4.6-12.3-4.6-17 .1z"/>
  </symbol>
  <symbol id="cil-x-circle" viewBox="0 0 512 512">
    <path d="M256 8C119 8 8 119 8 256s111 248 248 248 248-111 248-248S393 8 256 8zm0 448c-110.5 0-200-89.5-200-200S145.5 56 256 56s200 89.5 200 200-89.5 200-200 200zm101.8-262.2L295.6 256l62.2 62.2c4.7 4.7 4.7 12.3 0 17l-8.5 8.5c-4.7 4.7-12.3 4.7-17 0L270.1 281.5l-62.2 62.2c-4.7 4.7-12.3 4.7-17 0l-8.5-8.5c-4.7-4.7-4.7-12.3 0-17l62.2-62.2-62.2-62.2c-4.7-4.7-4.7-12.3 0-17l8.5-8.5c4.7-4.7 12.3-4.7 17 0l62.2 62.2 62.2-62.2c4.7-4.7 12.3-4.7 17 0l8.5 8.5c4.7 4.7 4.7 12.3 0 17z"/>
  </symbol>
  <symbol id="cil-account-logout" viewBox="0 0 512 512">
    <path d="M272 96h-16c-8.8 0-16 7.2-16 16v96c0 8.8 7.2 16 16 16h16c8.8 0 16-7.2 16-16v-96c0-8.8-7.2-16-16-16zm0 160h-16c-8.8 0-16 7.2-16 16v96c0 8.8 7.2 16 16 16h16c8.8 0 16-7.2 16-16v-96c0-8.8-7.2-16-16-16zM256 0C114.6 0 0 114.6 0 256s114.6 256 256 256 256-114.6 256-256S397.4 0 256 0zm0 464c-114.7 0-208-93.3-208-208S141.3 48 256 48s208 93.3 208 208-93.3 208-208 208zm80-208H176c-8.8 0-16 7.2-16 16s7.2 16 16 16h160c8.8 0 16-7.2 16-16s-7.2-16-16-16z"/>
  </symbol>
  <symbol id="cil-user-follow" viewBox="0 0 512 512">
    <path d="M256 288c79.5 0 144-64.5 144-144S335.5 0 256 0 112 64.5 112 144s64.5 144 144 144zm-96 32c-70.7 0-128 57.3-128 128v64h352v-64c0-70.7-57.3-128-128-128H160zm352-32h-48V240c0-8.8-7.2-16-16-16s-16 7.2-16 16v48h-48c-8.8 0-16 7.2-16 16s7.2 16 16 16h48v48c0 8.8 7.2 16 16 16s16-7.2 16-16v-48h48c8.8 0 16-7.2 16-16s-7.2-16-16-16z"/>
  </symbol>
  <symbol id="cil-info" viewBox="0 0 512 512">
    <path d="M256 8C119.034 8 8 119.033 8 256s111.034 248 248 248 248-111.034 248-248S392.967 8 256 8zm0 110c23.196 0 42 18.804 42 42s-18.804 42-42 42-42-18.804-42-42 18.804-42 42-42zm56 254c0 6.627-5.373 12-12 12h-88c-6.627 0-12-5.373-12-12v-24c0-6.627 5.373-12 12-12h12v-64h-12c-6.627 0-12-5.373-12-12v-24c0-6.627 5.373-12 12-12h64c6.627 0 12 5.373 12 12v100h12c6.627 0 12 5.373 12 12v24z"/>
  </symbol>
</svg>
